<svg width="100" height="67" viewBox="0 0 100 67" fill="none" xmlns="http://www.w3.org/2000/svg">
<path d="M33.0713 0.140625C32.5439 0.21875 31.5674 0.492188 30.9229 0.726562C28.3252 1.66406 28.0127 1.97656 13.833 17.1914C6.46973 25.1016 0.356445 31.8008 0.219727 32.0938C-0.0732422 32.7969 -0.0732422 33.8516 0.219727 34.5352C0.356445 34.8281 6.46973 41.5469 13.833 49.457C28.3057 64.9844 28.3252 65.0234 31.3135 66.0781L32.876 66.625H61.5869C88.9111 66.625 90.3565 66.6055 91.4697 66.2734C95.3174 65.082 98.208 62.3086 99.3994 58.6758L99.8682 57.25V33.3242V9.39844L99.419 7.99219C99.1846 7.19141 98.5596 5.96094 97.9932 5.12109C96.5088 2.875 94.419 1.35156 91.5674 0.394531C90.5322 0.0429688 89.2236 0.0234375 62.2705 0.00390625C46.7432 -0.015625 33.6182 0.0429688 33.0713 0.140625ZM52.8565 15.1016C53.5986 15.5117 55.1807 17.0742 59.1455 21.3711C62.0752 24.5156 64.5361 27.0742 64.6143 27.0352C64.6924 26.9961 67.2119 24.3594 70.1807 21.1367C75.9424 14.9648 76.3721 14.5938 78.0518 14.5742C81.0205 14.5547 83.0908 17.7969 81.8408 20.4727C81.665 20.8633 79.0088 23.8906 75.9424 27.1914C72.876 30.4922 70.376 33.2461 70.376 33.3242C70.376 33.4023 72.8369 36.1172 75.8447 39.3594C78.8525 42.6016 81.5088 45.6094 81.7627 46.0586C83.208 48.7539 81.0791 52.0742 77.8955 52.0742C76.3916 52.0547 75.8252 51.5859 70.1807 45.5117C67.2119 42.2891 64.6924 39.6523 64.6143 39.6133C64.5361 39.5742 62.0752 42.1328 59.1455 45.2773C53.5791 51.293 52.6611 52.0742 51.1963 52.0742C48.7549 52.0742 46.8408 50.1602 46.8408 47.7188C46.8408 46.4492 47.8174 45.1797 53.3447 39.2617C56.3135 36.0586 58.7549 33.3828 58.7549 33.3242C58.7549 33.2656 56.2158 30.4727 53.1299 27.1328C47.4072 20.9805 46.8408 20.2383 46.8408 18.832C46.8408 17.7188 47.3096 16.6445 48.1494 15.8047C49.4775 14.457 51.1963 14.2031 52.8565 15.1016Z" fill="#6A58A2"/>
</svg>
