<svg width="100" height="96" viewBox="0 0 100 96" fill="none" xmlns="http://www.w3.org/2000/svg">
<path d="M8.45376 40.1209C4.43817 40.7057 1.31926 43.5322 0.286121 47.4698C-0.980935 52.2846 2.07949 57.4308 7.10873 58.9708C8.21984 59.3022 10.0717 59.3217 49.8963 59.3217C89.7208 59.3217 91.5727 59.3022 92.6838 58.9708C97.713 57.4308 100.773 52.2846 99.5064 47.4698C98.6292 44.0975 96.1926 41.5244 92.7813 40.3743C91.7481 40.0429 89.9937 40.0234 50.5785 40.0039C27.9664 39.9844 8.99957 40.0429 8.45376 40.1209Z" fill="#6A58A2"/>
<path d="M47.4775 0.17538C41.6295 1.16953 37.0096 5.32158 35.3917 11.0331C34.7874 13.1578 34.7874 16.4327 35.3917 18.5574C36.4053 22.1247 38.4911 25.0487 41.4931 27.076C45.4307 29.766 50.7328 30.3313 55.1578 28.538C63.9882 24.9512 67.1656 14.4249 61.8634 6.45218C58.842 1.89078 52.8381 -0.721306 47.4775 0.17538Z" fill="#6A58A2"/>
<path d="M47.8088 65.9844C45.8011 66.3937 45.1578 66.5692 44.0077 67.037C39.8361 68.7524 36.6782 72.3781 35.3917 76.92C34.7874 79.0448 34.7874 82.3196 35.3917 84.4444C36.8342 89.5516 40.7718 93.5087 45.8011 94.9122C55.4307 97.6023 64.9823 89.922 64.417 79.9025C64.0467 73.0799 59.2708 67.5633 52.5457 66.1793C51.1812 65.8869 48.7835 65.7894 47.8088 65.9844Z" fill="#6A58A2"/>
</svg>
