<svg width="100" height="50" viewBox="0 0 100 50" fill="none" xmlns="http://www.w3.org/2000/svg">
<path d="M8.47134 0.759299C4.4474 1.34531 1.322 4.1777 0.286716 8.12351C-0.982975 12.9483 2.08382 18.1052 7.12351 19.6484C8.23693 19.9805 10.0926 20 50 20C89.9074 20 91.7631 19.9805 92.8765 19.6484C97.9162 18.1052 100.983 12.9483 99.7133 8.12351C98.8343 4.74417 96.3926 2.16573 92.9742 1.01324C91.9389 0.681164 90.1808 0.66163 50.6837 0.642097C28.0246 0.622563 9.01828 0.681164 8.47134 0.759299Z" fill="#6A58A2"/>
<path d="M8.47134 30.7593C4.4474 31.3453 1.322 34.1777 0.286716 38.1235C-0.982975 42.9483 2.08382 48.1052 7.12351 49.6484C8.23693 49.9805 10.0926 50 50 50C89.9074 50 91.7631 49.9805 92.8765 49.6484C97.9162 48.1052 100.983 42.9483 99.7133 38.1235C98.8343 34.7442 96.3926 32.1657 92.9742 31.0132C91.9389 30.6812 90.1808 30.6616 50.6837 30.6421C28.0246 30.6226 9.01828 30.6812 8.47134 30.7593Z" fill="#6A58A2"/>
</svg>
