<svg width="100" height="100" viewBox="0 0 100 100" fill="none" xmlns="http://www.w3.org/2000/svg">
<path d="M35.2807 0.651852C25.3284 3.97351 17.6442 9.33928 10.5466 17.9088C9.35385 19.3632 6.67513 23.6283 5.48242 26.0262C2.74505 31.4116 1.00486 37.1312 0.261858 43.1259C-0.129196 46.192 -0.0705377 53.1105 0.359621 55.9998C2.00204 67.3603 6.73379 76.9518 14.6135 84.971C22.5323 93.0098 32.4064 97.9824 43.7861 99.6531C46.6017 100.066 53.5429 100.125 56.3976 99.7514C71.0425 97.8842 83.8104 90.1991 92.1007 78.308C94.3102 75.1436 96.3632 71.2519 97.7514 67.6551C98.6509 65.3162 100 60.7366 100 59.9897C100 59.1642 99.2961 57.9063 98.5727 57.4739C97.0084 56.5108 95.8157 56.7663 93.489 58.5353C87.1148 63.4293 80.5255 65.9648 72.7045 66.5151C69.6543 66.751 68.1878 66.692 64.8052 66.2006C50.0625 64.0583 37.9594 53.2481 33.9902 38.6446C32.3478 32.5713 32.3087 25.4759 33.912 19.265C35.222 14.1547 36.8058 10.9117 40.6577 5.42797C41.694 3.95386 41.8308 2.91215 41.1074 1.61494C40.0906 -0.17365 38.546 -0.448817 35.2807 0.651852Z" fill="white"/>
</svg>
