<svg width="100" height="100" viewBox="0 0 100 100" fill="none" xmlns="http://www.w3.org/2000/svg">
<path d="M8.90485 0.486481C3.47118 2.22118 0.00179213 6.91505 0.00179213 12.4763C0.00179213 14.7977 0.409955 16.4048 1.5324 18.6242C2.2722 20.1038 4.05791 21.9661 17.0426 35.0018L31.7365 49.7467L17.0681 64.4661C1.78751 79.8487 1.65996 80.0018 0.511996 83.3181C-0.125759 85.1293 -0.176779 88.3691 0.409955 90.3334C1.68547 94.6191 4.84873 97.8334 9.10894 99.1089C10.6906 99.5936 14.364 99.5936 15.9712 99.1089C19.211 98.165 19.4916 97.9099 35.0018 82.4253L49.7467 67.7569L64.4661 82.4253C74.7467 92.6548 79.5936 97.3232 80.4865 97.8079C82.6549 99.0069 84.6191 99.5171 86.9916 99.5171C92.4763 99.5171 96.9406 96.3283 98.8283 91.0732C100.053 87.6804 99.6957 83.9304 97.8079 80.4865C97.3232 79.5936 92.6549 74.7467 82.4253 64.4661L67.7569 49.7467L82.4253 35.0018C97.91 19.4916 98.1651 19.211 99.1089 15.9712C99.5936 14.364 99.5936 10.6906 99.1345 9.15995C97.8334 4.87424 94.5936 1.65995 90.3334 0.409951C88.3691 -0.176784 85.1293 -0.125763 83.3181 0.511992C80.0018 1.65995 79.8487 1.7875 64.4661 17.0681L49.7467 31.7365L35.0018 17.0426C21.9661 4.05791 20.1038 2.2722 18.6242 1.5324C17.7059 1.07322 16.4049 0.537502 15.6906 0.35893C13.9049 -0.125763 10.6395 -0.074743 8.90485 0.486481Z" fill="#6A58A2"/>
</svg>
