<svg width="142" height="142" viewBox="0 0 142 142" fill="none" xmlns="http://www.w3.org/2000/svg">
<path d="M7.0338 64.8148C4.41822 69.8836 5.28407 75.6559 9.21645 79.5883C10.8579 81.2298 12.283 82.0776 14.646 82.8533C16.2154 83.3764 18.7949 83.4305 37.1941 83.4666L58.0104 83.5026L58.0465 104.283C58.1187 125.965 58.1367 126.164 59.67 129.32C60.4997 131.052 62.7545 133.379 64.5584 134.353C68.4908 136.482 73.0004 136.518 76.9147 134.407C78.3758 133.631 80.9734 131.034 81.767 129.555C83.3905 126.596 83.4085 126.218 83.4266 104.301L83.4807 83.5026L104.261 83.4666C118.764 83.4305 125.492 83.3042 126.466 83.0156C128.847 82.3301 130.597 81.3019 132.275 79.6244C136.153 75.7461 137.055 70.3346 134.674 65.2838C133.141 62.0189 130.236 59.6197 126.466 58.5194C125.492 58.2308 118.764 58.1045 104.261 58.0684L83.4807 58.0324L83.4266 37.234C83.4085 15.3173 83.3905 14.9385 81.767 11.9802C80.9734 10.5011 78.3758 7.90355 76.9688 7.14593C73.0184 5.03544 68.4547 5.05347 64.5584 7.18201C62.7545 8.15609 60.4997 10.483 59.67 12.2147C58.1367 15.3715 58.1187 15.5699 58.0465 37.2521L58.0104 58.0324L37.1941 58.0684C18.7949 58.1045 16.2154 58.1586 14.646 58.6818C13.6719 59.0064 12.3732 59.5476 11.7418 59.9264C10.1364 60.8464 7.86357 63.1914 7.0338 64.8148Z" fill="#6A58A2"/>
</svg>
