<svg width="100" height="101" viewBox="0 0 100 101" fill="none" xmlns="http://www.w3.org/2000/svg">
<path d="M48.271 0.908741C47.1575 1.29965 45.8096 2.68737 45.4189 3.84055C44.9501 5.18918 44.9696 13.5742 45.4385 14.9423C46.044 16.7405 48.0562 18.1673 49.9901 18.1673C51.9241 18.1673 53.9362 16.7405 54.5418 14.9423C55.0106 13.5742 55.0302 5.18918 54.5613 3.84055C53.7213 1.35829 50.8106 0.00965253 48.271 0.908741Z" fill="white"/>
<path d="M16.2923 14.1605C15.2765 14.5319 13.7528 16.1151 13.4793 17.1119C13.3621 17.5223 13.2644 18.3237 13.2644 18.871C13.2644 20.5714 13.8895 21.4705 17.6207 25.145C21.1761 28.6632 21.8794 29.1127 23.618 29.1127C26.1575 29.1127 28.5018 26.7673 28.5018 24.2264C28.5018 22.4869 28.0524 21.7832 24.5361 18.226C20.7854 14.4146 19.9649 13.8673 18.1677 13.8673C17.5621 13.8869 16.7221 14.0042 16.2923 14.1605Z" fill="white"/>
<path d="M79.7616 14.356C79.0584 14.7078 77.7886 15.8414 75.4444 18.226C71.9281 21.7832 71.4788 22.4869 71.4788 24.2264C71.4788 26.7673 73.823 29.1127 76.3625 29.1127C78.1011 29.1127 78.8044 28.6632 82.3598 25.145C86.091 21.4705 86.7161 20.5714 86.7161 18.871C86.7161 17.2291 86.384 16.4082 85.2705 15.3137C83.7272 13.7696 81.6565 13.3982 79.7616 14.356Z" fill="white"/>
<path d="M46.9623 25.7119C46.7474 25.7705 45.8683 25.9464 45.0088 26.1028C35.3389 27.9596 27.5835 35.7386 25.4346 45.7263C24.9463 48.0522 24.9463 53.1731 25.4346 55.499C27.603 65.5649 35.0459 73.0313 45.1065 75.1813C47.4311 75.6699 52.5493 75.6699 54.874 75.1813C64.9345 73.0313 72.3774 65.5649 74.5458 55.499C75.0342 53.1731 75.0342 48.0522 74.5458 45.7263C72.4165 35.7777 64.9931 28.2918 55.0693 26.0832C53.6433 25.7705 47.8414 25.4969 46.9623 25.7119Z" fill="white"/>
<path d="M3.14515 46.0586C2.69584 46.215 1.93397 46.7232 1.46513 47.2118C-0.488377 49.1663 -0.488377 52.059 1.46513 54.0136C2.83258 55.3818 3.3991 55.499 8.77124 55.499C14.1239 55.499 14.7685 55.3622 16.0969 54.0331C18.0113 52.1177 18.0113 49.1077 16.0969 47.1922C14.7685 45.8436 14.1239 45.7263 8.6931 45.7459C5.02051 45.7459 3.80934 45.8241 3.14515 46.0586Z" fill="white"/>
<path d="M85.6613 46.0391C84.5478 46.4495 83.6687 47.1727 83.0631 48.2282C82.5943 49.01 82.5161 49.3618 82.5161 50.6127C82.5161 51.8636 82.5943 52.2154 83.0631 52.9972C83.6882 54.0722 84.5478 54.7954 85.7199 55.2059C86.9701 55.6359 95.4483 55.6359 96.7376 55.1863C98.5349 54.5804 100 52.5086 100 50.6127C100 48.7168 98.5349 46.645 96.7376 46.0391C95.4874 45.6091 86.8334 45.6091 85.6613 46.0391Z" fill="white"/>
<path d="M21.8597 72.4449C20.6681 72.8749 14.495 78.9144 13.7527 80.3999C12.7954 82.2958 13.1666 84.3676 14.7099 85.9117C15.8038 87.0258 16.6243 87.358 18.2653 87.358C19.9648 87.358 20.8634 86.7326 24.536 82.9994C27.31 80.1849 27.896 79.4812 28.1695 78.6799C28.8142 76.7644 28.4235 74.9858 27.017 73.5981C25.63 72.1908 23.7546 71.7804 21.8597 72.4449Z" fill="white"/>
<path d="M74.6434 72.4449C72.9439 73.0508 71.4788 75.1422 71.4788 76.999C71.4788 78.7385 71.9281 79.4422 75.4444 82.9994C79.117 86.7326 80.0156 87.358 81.7151 87.358C83.3561 87.358 84.1766 87.0258 85.2705 85.9117C86.384 84.8171 86.7161 83.9962 86.7161 82.3544C86.7161 80.654 86.091 79.7549 82.3598 76.0803C79.5467 73.3049 78.8435 72.7185 78.0425 72.4449C76.8704 72.0344 75.7569 72.0344 74.6434 72.4449Z" fill="white"/>
<path d="M48.3492 83.3317C47.2357 83.7421 46.2394 84.6412 45.6924 85.7162C45.2236 86.6349 45.2041 86.7717 45.1455 91.5212C45.0869 97.2089 45.1845 97.7562 46.5911 99.1635C48.5446 101.118 51.4358 101.118 53.3893 99.1635C54.7567 97.7953 54.8739 97.2285 54.8739 91.8339C54.8739 86.8499 54.7762 86.1658 53.78 84.8758C52.6469 83.3903 50.1269 82.6671 48.3492 83.3317Z" fill="white"/>
</svg>
