<svg width="511" height="398" viewBox="0 0 511 398" fill="none" xmlns="http://www.w3.org/2000/svg">
<path d="M446.8 0.46955C434.2 3.06955 441.7 -3.83045 304.5 133.07L177 260.47L129 212.47C77.2 160.67 76.1 159.77 63.3 157.37C58.2 156.47 55.4 156.47 50.9 157.27C39.6 159.57 35.1 162.57 20.3 177.27C8.9 188.77 6.1 192.17 3.3 197.97C0.3 204.37 0 205.77 0 214.47C0 222.77 0.4 224.77 2.9 230.47C5.7 236.57 10.6 241.77 82.8 314.17C138.4 369.87 161.2 392.07 164.9 394.17C172 398.07 181.7 398.07 189 394.27C192.8 392.27 232.2 353.37 349.6 235.77C497.7 87.4696 505.3 79.6696 508.1 73.4696C510.6 67.7696 511 65.7696 511 57.4696C511 43.7696 508.3 38.3696 493.4 22.9696C480.8 9.96955 474.7 5.06955 467.7 2.46955C461.8 0.26955 452.3 -0.63045 446.8 0.46955Z" fill="white"/>
</svg>
