<svg width="512" height="512" viewBox="0 0 512 512" fill="none" xmlns="http://www.w3.org/2000/svg">
<path d="M237 0.700017C199.1 4.30002 170.9 12.3 139 28.5C101.2 47.8 67.3 78.2 42.5 115C32.1 130.6 19.3 156.9 13.1 175.5C8.19999 190.5 4.19999 207.6 1.79999 224.5C0.0999939 236.3 0.0999939 275.7 1.79999 287.5C5.99999 317 13.8 342.8 26 367.5C39.7 395.5 53.2 414.3 75.4 436.6C97.5 458.6 116.6 472.3 143.5 485.5C162.3 494.7 174.4 499.2 193.5 504C243.5 516.6 293.7 514.2 342.5 496.9C357.4 491.6 383.2 478.7 396.5 469.8C426.4 449.9 453.8 421.8 473.4 391C480.6 379.7 492.2 355.7 496.9 342.4C520.4 276.2 516.3 205.2 485.4 143.1C473 118.1 459.1 98.4 439.6 78.3C418 55.9 396.8 40.5 368.5 26.5C338.9 11.9 311.3 4.00002 278.5 1.00002C268.3 0.100017 245.2 -0.0999832 237 0.700017ZM267.4 126C269.4 127.4 272.3 130.3 273.8 132.4L276.5 136.3L277 185.4L277.5 234.5L326.6 235L375.7 235.5L379.6 238.2C381.7 239.7 384.6 242.6 386 244.7C388.1 247.8 388.5 249.5 388.5 256C388.5 262.5 388.1 264.2 386 267.3C384.6 269.4 381.7 272.3 379.6 273.8L375.7 276.5L326.6 277L277.5 277.5L277 326.6L276.5 375.7L273.8 379.6C272.3 381.7 269.4 384.6 267.3 386C264.2 388.1 262.5 388.5 256 388.5C249.5 388.5 247.8 388.1 244.7 386C242.6 384.6 239.7 381.7 238.2 379.6L235.5 375.7L235 326.6L234.5 277.5L185.4 277L136.3 276.5L132.4 273.8C126.2 269.4 123.6 264.8 123.2 257.1C122.8 248.9 125.5 243 131.9 238.5L136.2 235.5L185.3 235L234.5 234.5L235 185.3L235.5 136.2L238.5 131.9C243 125.5 248.9 122.8 257.1 123.2C262.1 123.5 264.6 124.2 267.4 126Z" fill="#6A58A2"/>
</svg>
