<svg viewBox="0 0 432 530" fill="none" xmlns="http://www.w3.org/2000/svg">
<path d="M172.1 10.6C163.8 12.8 155.6 17.7 149.7 23.9C139.8 34.3 136 44.9 136 62.2V72.9L87.3 73.2L38.5 73.5L31.8 76.7C22.5 81.1 16.7 86.7 12.2 95.8L8.5 103.4V139.1C8.5 173.6 8.6 174.9 10.6 177.6C14.6 183 17.6 184.4 25.6 184.8L33 185.2V188.9C33.1 203.6 47.2 481.5 48 485C52 501.5 67.6 516.3 84.8 519.9C92.3 521.4 339.7 521.4 347.2 519.9C364.4 516.3 380 501.5 384 485C384.8 481.5 398.9 203.6 399 188.9V185.2L406.4 184.8C414.4 184.4 417.4 183 421.4 177.6C423.4 174.9 423.5 173.6 423.5 139.1V103.4L419.8 95.8C415.3 86.7 409.5 81.1 400.2 76.7L393.5 73.5L344.8 73.2L296 72.9V62.2C296 44.9 292.2 34.3 282.3 23.9C276.2 17.5 268.2 12.8 259.5 10.5C251.1 8.40002 180.2 8.40002 172.1 10.6ZM256.6 43.6C262.6 48 263.5 50.3 263.8 62.1L264.2 73H216.1H168V63.6C168 53.4 168.9 49.9 172.3 46.1C176.9 41.1 177.9 41 217.2 41.3C252.5 41.5 254 41.6 256.6 43.6ZM389.5 107.5C392 109.9 392 109.9 392 131.5V153H216H40V131.5C40 109.9 40 109.9 42.5 107.5L44.9 105H216H387.1L389.5 107.5ZM367 186.7C367.1 195 353.8 469 353.1 473.7C352 481 349.9 484.3 344.4 487C340.4 489 338.7 489 216 489C93.3 489 91.6 489 87.6 487C82.1 484.3 80 481 78.9 473.7C78.2 469 64.9 195 65 186.7C65 185.1 72.9 185 216 185C359.1 185 367 185.1 367 186.7Z" fill="#6A58A2" stroke="#6A58A2" stroke-width="17"/>
<path d="M129.5 218.4C125.4 220.2 121.2 225.3 120.5 229.3C120.2 231.1 120.1 280.7 120.2 339.7C120.5 446.1 120.5 446.9 122.6 449.6C126.5 454.9 129.7 456.5 136 456.5C142.3 456.5 145.5 454.9 149.4 449.6C151.5 446.9 151.5 446.4 151.5 337C151.5 227.6 151.5 227.1 149.4 224.4C148.3 222.9 146.2 220.7 144.8 219.7C141.5 217.2 133.5 216.5 129.5 218.4Z" fill="#6A58A2" stroke="#6A58A2" stroke-width="17"/>
<path d="M209.5 218.4C205.4 220.2 201.2 225.3 200.5 229.3C200.2 231.1 200.1 280.7 200.2 339.7C200.5 446.1 200.5 446.9 202.6 449.6C206.5 454.9 209.7 456.5 216 456.5C222.3 456.5 225.5 454.9 229.4 449.6C231.5 446.9 231.5 446.4 231.5 337C231.5 227.6 231.5 227.1 229.4 224.4C228.3 222.9 226.2 220.7 224.8 219.7C221.5 217.2 213.5 216.5 209.5 218.4Z" fill="#6A58A2" stroke="#6A58A2" stroke-width="17"/>
<path d="M289.5 218.4C285.4 220.2 281.2 225.3 280.5 229.3C280.2 231.1 280.1 280.7 280.2 339.7C280.5 446.1 280.5 446.9 282.6 449.6C286.5 454.9 289.7 456.5 296 456.5C302.3 456.5 305.5 454.9 309.4 449.6C311.5 446.9 311.5 446.4 311.5 337C311.5 227.6 311.5 227.1 309.4 224.4C308.3 222.9 306.2 220.7 304.8 219.7C301.5 217.2 293.5 216.5 289.5 218.4Z" fill="#6A58A2" stroke="#6A58A2" stroke-width="17"/>
</svg>
