<svg width="27" height="32" viewBox="0 0 27 32" fill="none" xmlns="http://www.w3.org/2000/svg">
<path d="M8.16348 1.04806C7.88767 1.13022 7.52384 1.51166 7.44168 1.81681C7.30671 2.33909 7.5121 2.88484 7.95809 3.16065L8.18109 3.30149L15.1702 3.33083L22.1535 3.36017L22.5995 3.5773C23.1335 3.84137 23.4621 4.18173 23.7203 4.72748L23.9081 5.12066L23.9375 14.4513L23.9668 23.7818L24.1076 24.0048C24.1839 24.1281 24.3541 24.2983 24.4832 24.3863C24.6827 24.5213 24.7884 24.5447 25.1111 24.5447C25.4339 24.5447 25.5395 24.5213 25.739 24.3863C25.8681 24.2983 26.0383 24.1281 26.1146 24.0048L26.2554 23.7818V14.3632C26.2554 5.74857 26.2496 4.91527 26.1557 4.59251C25.9033 3.67119 25.516 2.99047 24.9057 2.3743C24.5067 1.96352 23.826 1.50579 23.3624 1.33561C22.4469 0.989379 23.0044 1.01285 15.3698 1.00112C11.0272 0.995247 8.28085 1.01285 8.16348 1.04806Z" fill="#6A58A2" stroke="#6A58A2" stroke-width="0.7"/>
<path d="M4.80682 5.82485C2.8292 6.22976 1.36213 7.75552 1.05697 9.72727C1.00416 10.05 0.992422 12.3797 1.00416 18.6471C1.02176 27.8896 0.998291 27.1855 1.34452 28.1068C1.73183 29.1455 2.87615 30.2898 3.91483 30.6771C4.81855 31.0175 4.39604 30.9998 11.2913 30.9998C18.1865 30.9998 17.764 31.0175 18.6677 30.6771C19.7123 30.2898 20.8507 29.1513 21.238 28.1068C21.5843 27.1913 21.5608 27.8544 21.5608 18.383C21.5608 10.4549 21.5549 9.66858 21.461 9.34583C21.2087 8.4245 20.8214 7.74378 20.2111 7.12761C19.8121 6.71683 19.1313 6.2591 18.6677 6.08892C17.7581 5.74856 18.2335 5.76617 11.438 5.75443C6.44407 5.74856 5.11197 5.7603 4.80682 5.82485ZM17.8462 8.30127C18.3919 8.55948 18.7323 8.8881 18.9964 9.42212L19.2135 9.86811V18.383V26.8979L18.9964 27.3439C18.7323 27.8779 18.3919 28.2065 17.8462 28.4647L17.453 28.6525H11.2913H5.12957L4.7364 28.4647C4.19064 28.2065 3.85028 27.8779 3.58621 27.3439L3.36908 26.8979V18.3889V9.87397L3.55687 9.4808C3.65663 9.26367 3.85028 8.97026 3.97939 8.82942C4.23759 8.54774 4.77161 8.23672 5.13544 8.14869C5.27041 8.11935 7.8818 8.09588 11.4087 8.10175L17.453 8.11348L17.8462 8.30127Z" fill="#6A58A2" stroke="#6A58A2" stroke-width="0.7"/>
</svg>
