<svg width="32" height="32" viewBox="0 0 32 32" fill="none" xmlns="http://www.w3.org/2000/svg">
<path d="M14.6165 1.07235C5.40458 1.96571 -0.810081 10.7957 1.4751 19.7487C2.7504 24.7528 6.52451 28.747 11.4509 30.3266C13.0434 30.838 14.1698 31.0063 15.976 30.9998C17.5814 30.9998 18.3194 30.9157 19.7242 30.5596C25.5634 29.0772 29.9719 24.1896 30.8653 18.195C31.0206 17.1528 31.0659 15.9616 30.9624 15.5991C30.8458 15.1848 30.3992 14.6993 30.0107 14.5698C29.3828 14.3562 28.8779 14.4727 28.4053 14.9518C28.0298 15.3208 27.9198 15.6121 27.9198 16.2076C27.9198 17.8455 27.4537 19.6969 26.6251 21.3606C25.4663 23.6782 23.6601 25.4908 21.3491 26.6366C19.8342 27.3876 18.5525 27.7501 16.9082 27.886C13.7555 28.145 10.5835 27.0768 8.11055 24.9211C5.36574 22.5323 3.83149 18.7129 4.1487 15.0683C4.28465 13.5211 4.62127 12.2717 5.28805 10.8734C7.08124 7.12517 10.6611 4.61341 14.8496 4.17321C17.5491 3.88837 20.3457 4.60047 22.6826 6.16708C23.4077 6.65907 24.437 7.53301 24.7995 7.97321L25.0261 8.25158H22.7409C21.1354 8.25158 20.378 8.27747 20.1903 8.32926C19.6336 8.49758 19.1157 9.20967 19.1157 9.80524C19.1157 10.4008 19.6336 11.1129 20.1903 11.2812C20.3845 11.3395 21.4721 11.3589 24.3075 11.3589C28.7096 11.3589 28.5607 11.3719 29.0397 10.841C29.1951 10.6727 29.3569 10.4138 29.3958 10.2713C29.5058 9.90235 29.5058 2.45123 29.3958 2.07576C29.2922 1.71971 28.7549 1.1824 28.3988 1.07882C27.7903 0.897563 27.3048 1.02703 26.8516 1.48666C26.3985 1.93334 26.3661 2.08223 26.3661 3.71358C26.3661 4.46452 26.3467 5.07951 26.3273 5.07951C26.3078 5.07951 26.1266 4.93709 25.9389 4.76231C23.0387 2.10813 18.6431 0.67746 14.6165 1.07235Z" fill="#6A58A2" stroke="#6A58A2" stroke-width="0.7"/>
</svg>
