<svg width="45" height="55" viewBox="0 0 45 55" fill="none" xmlns="http://www.w3.org/2000/svg">
<path d="M1.66667 1.66667C0.0833333 3.25 0 4.41667 0 27.5C0 50.5833 0.0833333 51.75 1.66667 53.3333C2.91667 54.5833 4.41667 55 7.5 55C10.5833 55 12.0833 54.5833 13.3333 53.3333C14.9167 51.75 15 50.5833 15 27.5C15 4.41667 14.9167 3.25 13.3333 1.66667C12.0833 0.416665 10.5833 -1.63913e-06 7.5 -1.63913e-06C4.41667 -1.63913e-06 2.91667 0.416665 1.66667 1.66667Z" fill="#6a58a2"/>
<path d="M31.6667 1.66667C30.0833 3.25 30 4.41667 30 27.5C30 50.5833 30.0833 51.75 31.6667 53.3333C32.9167 54.5833 34.4167 55 37.5 55C40.5833 55 42.0833 54.5833 43.3333 53.3333C44.9167 51.75 45 50.5833 45 27.5C45 4.41667 44.9167 3.25 43.3333 1.66667C42.0833 0.416665 40.5833 -1.63913e-06 37.5 -1.63913e-06C34.4167 -1.63913e-06 32.9167 0.416665 31.6667 1.66667Z" fill="#6a58a2"/>
</svg>
