<svg width="75" height="55" viewBox="0 0 75 55" fill="none" xmlns="http://www.w3.org/2000/svg">
<path d="M1.66667 1.66667C0.0833333 3.25 0 4.41667 0 27.5C0 50.5833 0.0833333 51.75 1.66667 53.3333C2.91667 54.5833 4.41667 55 7.5 55C10.5833 55 12.0833 54.5833 13.3333 53.3333C14.9167 51.75 15 50.5833 15 27.5C15 4.41667 14.9167 3.25 13.3333 1.66667C12.0833 0.416665 10.5833 -1.63913e-06 7.5 -1.63913e-06C4.41667 -1.63913e-06 2.91667 0.416665 1.66667 1.66667Z" fill="#6a58a2"/>
<path d="M32.01 0.712229C30.2233 1.71721 30 4.17385 30 27.4002C30 51.9665 30.1117 53.0831 32.2333 54.1998C34.9133 55.6514 32.7916 56.7681 56.018 42.0283C72.0977 31.8668 74.666 29.8568 74.666 27.4002C74.666 24.9435 72.0977 22.9336 56.018 12.6604C45.6331 6.07215 36.4766 0.488899 35.5833 0.153903C34.6899 -0.181092 33.015 0.0422385 32.01 0.712229Z" fill="#6a58a2"/>
</svg>
