<svg width="29" height="37" viewBox="0 0 29 37" fill="none" xmlns="http://www.w3.org/2000/svg">
<path d="M11.3611 0.677108C10.7847 0.829886 10.2153 1.17016 9.80556 1.60072C9.11806 2.32294 8.85417 3.05905 8.85417 4.26044V5.0035L5.47222 5.02433L2.08333 5.04516L1.61806 5.26739C0.972222 5.57294 0.569444 5.96183 0.256944 6.59377L0 7.12155V9.60072C0 11.9966 0.00694444 12.0868 0.145833 12.2743C0.423611 12.6493 0.631944 12.7466 1.1875 12.7743L1.70139 12.8021V13.0591C1.70833 14.0799 2.6875 33.3785 2.74306 33.6216C3.02083 34.7674 4.10417 35.7952 5.29861 36.0452C5.81944 36.1493 23 36.1493 23.5208 36.0452C24.7153 35.7952 25.7986 34.7674 26.0764 33.6216C26.1319 33.3785 27.1111 14.0799 27.1181 13.0591V12.8021L27.6319 12.7743C28.1875 12.7466 28.3958 12.6493 28.6736 12.2743C28.8125 12.0868 28.8194 11.9966 28.8194 9.60072V7.12155L28.5625 6.59377C28.25 5.96183 27.8472 5.57294 27.2014 5.26739L26.7361 5.04516L23.3542 5.02433L19.9653 5.0035V4.26044C19.9653 3.05905 19.7014 2.32294 19.0139 1.60072C18.5903 1.15627 18.0347 0.829886 17.4306 0.670163C16.8472 0.52433 11.9236 0.52433 11.3611 0.677108ZM17.2292 2.96877C17.6458 3.27433 17.7083 3.43405 17.7292 4.2535L17.7569 5.01044H14.4167H11.0764V4.35766C11.0764 3.64933 11.1389 3.40627 11.375 3.14239C11.6944 2.79516 11.7639 2.78822 14.4931 2.80905C16.9444 2.82294 17.0486 2.82989 17.2292 2.96877ZM26.4583 7.40627C26.6319 7.57294 26.6319 7.57294 26.6319 9.07294V10.566H14.4097H2.1875V9.07294C2.1875 7.57294 2.1875 7.57294 2.36111 7.40627L2.52778 7.23266H14.4097H26.2917L26.4583 7.40627ZM24.8958 12.9063C24.9028 13.4827 23.9792 32.5104 23.9306 32.8368C23.8542 33.3438 23.7083 33.5729 23.3264 33.7604C23.0486 33.8993 22.9306 33.8993 14.4097 33.8993C5.88889 33.8993 5.77083 33.8993 5.49306 33.7604C5.11111 33.5729 4.96528 33.3438 4.88889 32.8368C4.84028 32.5104 3.91667 13.4827 3.92361 12.9063C3.92361 12.7952 4.47222 12.7882 14.4097 12.7882C24.3472 12.7882 24.8958 12.7952 24.8958 12.9063Z" fill="white"/>
<path d="M8.40283 15.1077C8.11811 15.2327 7.82644 15.5868 7.77783 15.8646C7.757 15.9896 7.75005 19.4341 7.757 23.5313C7.77783 30.9202 7.77783 30.9757 7.92367 31.1632C8.1945 31.5313 8.41672 31.6424 8.85422 31.6424C9.29172 31.6424 9.51394 31.5313 9.78478 31.1632C9.93061 30.9757 9.93061 30.941 9.93061 23.3438C9.93061 15.7466 9.93061 15.7118 9.78478 15.5243C9.70839 15.4202 9.56255 15.2674 9.46533 15.198C9.23616 15.0243 8.68061 14.9757 8.40283 15.1077Z" fill="white"/>
<path d="M13.9584 15.1077C13.6737 15.2327 13.382 15.5868 13.3334 15.8646C13.3125 15.9896 13.3056 19.4341 13.3125 23.5313C13.3334 30.9202 13.3334 30.9757 13.4792 31.1632C13.75 31.5313 13.9723 31.6424 14.4098 31.6424C14.8473 31.6424 15.0695 31.5313 15.3403 31.1632C15.4862 30.9757 15.4862 30.941 15.4862 23.3438C15.4862 15.7466 15.4862 15.7118 15.3403 15.5243C15.2639 15.4202 15.1181 15.2674 15.0209 15.198C14.7917 15.0243 14.2362 14.9757 13.9584 15.1077Z" fill="white"/>
<path d="M19.5139 15.1077C19.2292 15.2327 18.9375 15.5868 18.8889 15.8646C18.8681 15.9896 18.8611 19.4341 18.8681 23.5313C18.8889 30.9202 18.8889 30.9757 19.0347 31.1632C19.3056 31.5313 19.5278 31.6424 19.9653 31.6424C20.4028 31.6424 20.625 31.5313 20.8959 31.1632C21.0417 30.9757 21.0417 30.941 21.0417 23.3438C21.0417 15.7466 21.0417 15.7118 20.8959 15.5243C20.8195 15.4202 20.6736 15.2674 20.5764 15.198C20.3473 15.0243 19.7917 14.9757 19.5139 15.1077Z" fill="white"/>
</svg>
