<svg viewBox="0 0 460 450" fill="none" xmlns="http://www.w3.org/2000/svg">
<path d="M450.006 225.005C450.006 246.756 432.379 264.382 410.616 264.382H264.379V410.623C264.379 432.379 246.746 450.006 224.998 450C214.122 450 204.278 445.599 197.158 438.476C190.029 431.343 185.623 421.503 185.627 410.634L185.622 264.377H39.3664C28.4974 264.377 18.6609 259.976 11.5266 252.842C4.40987 245.725 0.00601343 235.881 0.00601343 225.005C0.000135088 203.259 17.6273 185.628 39.387 185.628H185.627V39.3858C185.627 17.6326 203.264 0 225.014 0C246.756 0.00587819 264.378 17.6209 264.389 39.3711V185.628H410.645C432.391 185.64 449.995 203.259 450.006 225.005Z" fill="#115666"/>
</svg>
