<svg width="30" height="16" viewBox="0 0 30 16" fill="none" xmlns="http://www.w3.org/2000/svg">
<path fill-rule="evenodd" clip-rule="evenodd" d="M16.8593 12.8844C15.9899 14.1496 14.0101 14.1496 13.1407 12.8844C10.3648 8.84429 4.93399 2 0 2L30 2C25.066 2 19.6352 8.84429 16.8593 12.8844Z" fill="white"/>
<path d="M30 2L30 1L0 1L0 2V3C2.05047 3 4.39228 4.45788 6.68914 6.65049C8.93855 8.79782 10.9452 11.4549 12.3165 13.4507C13.5832 15.2942 16.4168 15.2942 17.6835 13.4507C19.0548 11.4549 21.0614 8.79782 23.3109 6.65049C25.6077 4.45788 27.9495 3 30 3V2Z" stroke="#6A58A2" stroke-opacity="0.25" stroke-width="2"/>
</svg>
