<svg width="30" height="14" viewBox="0 0 30 14" fill="none" xmlns="http://www.w3.org/2000/svg">
<path fill-rule="evenodd" clip-rule="evenodd" d="M16.8593 11.8844C15.9899 13.1496 14.0101 13.1496 13.1407 11.8844C10.3648 7.84429 4.93399 1 0 1L30 1C25.066 1 19.6352 7.84429 16.8593 11.8844Z" fill="white"/>
<path d="M30 1V0.600004L0 0.600004V1V1.4C2.30039 1.4 4.79183 3.0098 7.10344 5.21649C9.39607 7.40507 11.4298 10.1006 12.8111 12.1109C13.8393 13.6075 16.1607 13.6075 17.1889 12.1109C18.5702 10.1006 20.6039 7.40507 22.8966 5.21649C25.2082 3.0098 27.6996 1.4 30 1.4V1Z" stroke="#6A58A2" stroke-opacity="0.2" stroke-width="0.8"/>
</svg>
