<svg width="30" height="14" viewBox="0 0 30 14" fill="none" xmlns="http://www.w3.org/2000/svg">
<path fill-rule="evenodd" clip-rule="evenodd" d="M16.8593 11.8844C15.9899 13.1496 14.0101 13.1496 13.1407 11.8844C10.3648 7.84429 4.93399 1 0 1L30 1C25.066 1 19.6352 7.84429 16.8593 11.8844Z" fill="#EFEFEF"/>
<path d="M30 1V0.75L0 0.75V1V1.25C2.36286 1.25 4.89172 2.89777 7.20701 5.10799C9.51045 7.30688 11.5509 10.012 12.9347 12.026C13.9034 13.4358 16.0966 13.4358 17.0653 12.026C18.4491 10.012 20.4895 7.30688 22.793 5.10799C25.1083 2.89777 27.6371 1.25 30 1.25V1Z" stroke="black" stroke-opacity="0.15" stroke-width="0.5"/>
</svg>
