<svg width="30" height="14" viewBox="0 0 30 14" fill="none" xmlns="http://www.w3.org/2000/svg">
<path fill-rule="evenodd" clip-rule="evenodd" d="M16.8593 11.8844C15.9899 13.1496 14.0101 13.1496 13.1407 11.8844C10.3648 7.84429 4.93399 1 0 1L30 1C25.066 1 19.6352 7.84429 16.8593 11.8844Z" fill="white"/>
<path d="M30 1V0.500004L0 0.500004V1V1.5C2.25873 1.5 4.72524 3.08448 7.03439 5.28883C9.31982 7.47053 11.349 10.1596 12.7286 12.1675C13.7967 13.7219 16.2033 13.7219 17.2714 12.1675C18.651 10.1596 20.6802 7.47053 22.9656 5.28883C25.2748 3.08448 27.7413 1.5 30 1.5V1Z" stroke="#6A58A2" stroke-opacity="0.2"/>
</svg>
